# xmcd
#
# Track frame offsets:
#	150
#	16585
#	31717
#	44624
#	65330
#	78972
#	93615
#	114247
#	133334
#	152427
#	173791
#	189095
#	210090
#	238365
#
# Disc length: 4208 seconds
#
# Revision: 0
# Processed by: cddbd v1.5.1PL0 Copyright (c) Steve Scherf et al.
# Submitted via: audiograbber 1.83.01
#
DISCID=a5106e0e
DTITLE=Fesaci - V kristovych letech
DYEAR=2000
DGENRE=Country
TTITLE0=No tak delej
TTITLE1=Muzikantskej svet
TTITLE2=Plava Jane
TTITLE3=Kridla
TTITLE4=Dnes uz ti vim
TTITLE5=Zpoved
TTITLE6=Hladovej kamen
TTITLE7=V sedesatym sedmym
TTITLE8=Kdo vi
TTITLE9=Poprve
TTITLE10=Vlakova balada
TTITLE11=Maly prouzek dymu
TTITLE12=Tricet tri let
TTITLE13=Datov· Ë·st
EXTD=
EXTT0=
EXTT1=
EXTT2=
EXTT3=
EXTT4=
EXTT5=
EXTT6=
EXTT7=
EXTT8=
EXTT9=
EXTT10=
EXTT11=
EXTT12=
EXTT13=
PLAYORDER=
